<?xml version="1.0" standalone="no"?>
<!DOCTYPE svg PUBLIC "-//W3C//DTD SVG 20010904//EN"
 "http://www.w3.org/TR/2001/REC-SVG-20010904/DTD/svg10.dtd">
<svg version="1.0" xmlns="http://www.w3.org/2000/svg"
 width="121.000000pt" height="121.000000pt" viewBox="0 0 121.000000 121.000000"
 preserveAspectRatio="xMidYMid meet">

<g transform="translate(0.000000,121.000000) scale(0.100000,-0.100000)"
fill="#000000" stroke="none">
<path d="M1 923 c1 -168 5 -267 9 -238 28 189 115 327 265 420 74 46 156 80
230 95 24 5 -67 8 -232 9 l-273 1 1 -287z"/>
<path d="M725 1194 c230 -45 421 -232 478 -469 3 -11 5 94 6 233 l1 252 -277
-1 c-264 -1 -275 -2 -208 -15z"/>
<path d="M308 1044 c-9 -3 -21 -19 -27 -35 -9 -27 -8 -31 14 -41 27 -12 30
-19 40 -93 11 -82 33 -122 103 -185 36 -33 69 -60 73 -60 5 0 9 -18 9 -39 0
-34 -5 -42 -34 -60 -82 -51 -143 -149 -153 -246 -5 -43 -12 -59 -34 -80 -32
-27 -33 -33 -19 -55 8 -12 51 -16 247 -21 222 -6 336 0 354 18 17 19 14 63 -5
63 -21 0 -27 14 -41 95 -13 75 -49 146 -84 164 -10 6 -38 33 -61 61 -51 61
-51 62 49 166 72 74 92 117 106 216 4 33 11 49 25 53 34 11 36 56 2 71 -19 9
-537 16 -564 8z m500 -147 c-7 -84 -27 -119 -114 -203 -102 -98 -102 -113 5
-217 90 -87 114 -135 109 -213 l-3 -49 -224 -3 -223 -2 4 62 c5 87 38 147 116
215 70 61 88 93 72 124 -6 10 -46 54 -89 97 -85 83 -101 116 -101 205 l0 47
226 0 227 0 -5 -63z"/>
<path d="M607 796 l-128 -41 49 -48 c55 -54 57 -54 131 2 32 24 91 104 91 123
0 11 1 11 -143 -36z"/>
<path d="M513 458 c-64 -62 -101 -120 -105 -167 l-3 -34 178 -2 c98 -1 180 2
183 6 9 16 -16 87 -49 135 -34 51 -108 114 -133 114 -9 0 -40 -24 -71 -52z"/>
<path d="M1 298 l-1 -298 263 1 262 0 -75 20 c-84 21 -173 64 -232 112 -101
81 -188 247 -207 395 -6 49 -9 -15 -10 -230z"/>
<path d="M1193 458 c-7 -29 -31 -89 -53 -134 -82 -163 -230 -274 -425 -317
-11 -3 96 -5 238 -6 l257 -1 0 255 c0 140 -1 255 -3 255 -1 0 -8 -24 -14 -52z"/>
</g>
</svg>
