<?xml version="1.0" standalone="no"?>
<!DOCTYPE svg PUBLIC "-//W3C//DTD SVG 20010904//EN"
 "http://www.w3.org/TR/2001/REC-SVG-20010904/DTD/svg10.dtd">
<svg version="1.0" xmlns="http://www.w3.org/2000/svg"
 width="121.000000pt" height="121.000000pt" viewBox="0 0 121.000000 121.000000"
 preserveAspectRatio="xMidYMid meet">

<g transform="translate(0.000000,121.000000) scale(0.100000,-0.100000)"
fill="#000000" stroke="none">
<path d="M1 938 c1 -150 3 -264 5 -253 31 147 85 256 169 340 98 98 222 159
355 175 42 5 -38 8 -232 9 l-298 1 1 -272z"/>
<path d="M661 1200 c195 -25 367 -136 463 -300 30 -51 69 -173 79 -245 2 -16
5 102 6 263 l1 292 -302 -1 c-175 -1 -279 -5 -247 -9z"/>
<path d="M536 988 c-8 -13 -31 -59 -52 -103 -20 -44 -65 -142 -100 -217 -35
-76 -64 -142 -64 -148 0 -6 35 -10 85 -10 47 0 85 -3 85 -7 0 -5 -29 -51 -64
-103 l-63 -95 78 -3 c44 -2 79 -6 79 -10 0 -4 -9 -20 -21 -37 -11 -16 -29 -47
-40 -69 l-21 -39 34 20 c18 11 119 72 223 134 l190 114 -50 7 c-27 3 -74 7
-102 7 -29 1 -53 6 -53 11 0 6 53 65 118 131 64 67 118 125 120 130 2 5 -45 9
-107 9 -61 0 -111 3 -111 6 0 3 28 44 63 91 88 122 137 192 137 198 0 3 -79 5
-175 5 -170 0 -175 -1 -189 -22z m313 -14 c2 -2 -40 -62 -94 -135 -53 -73 -99
-138 -102 -145 -4 -10 18 -14 103 -16 l108 -3 -119 -124 c-66 -68 -121 -127
-123 -132 -2 -5 18 -9 45 -10 49 0 125 -8 130 -13 1 -1 -59 -39 -133 -85 -75
-45 -139 -80 -141 -77 -3 3 4 20 16 39 11 19 21 39 21 44 0 6 -30 8 -77 5 -90
-5 -90 -12 -3 118 l61 90 -96 0 c-52 0 -95 2 -95 6 0 7 145 324 181 396 l29
57 142 -6 c79 -3 145 -7 147 -9z"/>
<path d="M1200 532 c0 -16 -11 -66 -25 -111 -57 -193 -190 -332 -375 -395
l-75 -25 243 -1 242 0 0 280 c0 154 -2 280 -5 280 -3 0 -5 -13 -5 -28z"/>
<path d="M1 268 l-1 -268 238 1 c172 1 227 3 202 11 -72 20 -178 79 -238 134
-105 94 -157 185 -186 324 -14 62 -14 52 -15 -202z"/>
</g>
</svg>
