<?xml version="1.0" standalone="no"?>
<!DOCTYPE svg PUBLIC "-//W3C//DTD SVG 20010904//EN"
 "http://www.w3.org/TR/2001/REC-SVG-20010904/DTD/svg10.dtd">
<svg version="1.0" xmlns="http://www.w3.org/2000/svg"
 width="122.000000pt" height="121.000000pt" viewBox="0 0 122.000000 121.000000"
 preserveAspectRatio="xMidYMid meet">

<g transform="translate(0.000000,121.000000) scale(0.100000,-0.100000)"
fill="#000000" stroke="none">
<path d="M1 913 c1 -206 4 -278 10 -235 21 165 103 308 231 404 71 53 119 77
208 104 l75 23 -262 0 -263 1 1 -297z"/>
<path d="M755 1195 c136 -36 238 -96 323 -189 50 -55 111 -165 130 -236 8 -25
10 30 11 203 l1 237 -257 -1 c-235 0 -254 -2 -208 -14z"/>
<path d="M462 830 c-40 -10 -95 -31 -121 -46 -60 -32 -151 -107 -192 -157 -29
-35 -30 -40 -19 -68 21 -50 113 -133 192 -172 209 -105 411 -88 616 51 33 23
78 64 101 93 l41 51 -18 30 c-27 47 -119 126 -185 159 -145 74 -287 94 -415
59z m236 -97 c42 -31 69 -78 77 -133 21 -156 -173 -261 -291 -157 -140 122
-57 326 129 314 37 -2 67 -10 85 -24z m223 -71 c38 -35 69 -70 69 -76 0 -21
-80 -104 -126 -131 -48 -28 -87 -28 -64 0 15 18 7 19 -21 5 -23 -13 -24 -4 -4
43 21 50 19 125 -4 171 l-20 38 29 -4 c25 -4 27 -2 19 13 -14 27 -12 29 22 17
18 -6 63 -40 100 -76z m-526 59 c-5 -15 -1 -18 21 -13 l26 5 -18 -34 c-26 -49
-24 -142 4 -196 l22 -43 -26 10 c-35 14 -36 13 -24 -9 15 -28 13 -33 -11 -26
-35 11 -112 66 -146 104 -47 52 -44 84 12 137 70 67 153 106 140 65z"/>
<path d="M562 618 c-7 -7 -12 -24 -12 -40 0 -38 26 -50 68 -32 28 11 32 17 27
36 -4 13 -12 29 -17 36 -13 15 -50 16 -66 0z"/>
<path d="M1 298 l-1 -298 273 0 272 1 -85 23 c-98 26 -144 48 -219 104 -128
96 -209 241 -231 412 -4 32 -8 -71 -9 -242z"/>
<path d="M1205 443 c-13 -75 -76 -182 -149 -258 -84 -85 -158 -129 -269 -161
l-82 -23 258 0 257 -1 0 240 c0 132 -2 240 -4 240 -2 0 -7 -17 -11 -37z"/>
</g>
</svg>
