<?xml version="1.0" standalone="no"?>
<!DOCTYPE svg PUBLIC "-//W3C//DTD SVG 20010904//EN"
 "http://www.w3.org/TR/2001/REC-SVG-20010904/DTD/svg10.dtd">
<svg version="1.0" xmlns="http://www.w3.org/2000/svg"
 width="123.000000pt" height="122.000000pt" viewBox="0 0 123.000000 122.000000"
 preserveAspectRatio="xMidYMid meet">

<g transform="translate(0.000000,122.000000) scale(0.100000,-0.100000)"
fill="#000000" stroke="none">
<path d="M0 968 l0 -253 28 80 c50 148 123 242 250 322 69 44 173 85 242 96
14 2 -98 5 -247 6 l-273 1 0 -252z"/>
<path d="M725 1213 c245 -55 425 -219 486 -443 l18 -65 0 258 1 257 -262 -1
c-145 -1 -254 -3 -243 -6z"/>
<path d="M520 1047 c-14 -7 -26 -23 -28 -35 -2 -13 -10 -22 -21 -22 -9 0 -40
-7 -68 -15 -41 -12 -53 -21 -62 -45 -6 -17 -16 -44 -22 -60 -10 -26 -16 -30
-38 -26 -93 18 -99 18 -121 -4 -29 -29 -21 -73 22 -117 32 -33 32 -33 15 -67
-23 -49 -31 -122 -22 -220 6 -82 8 -85 36 -95 25 -8 29 -15 29 -46 0 -53 36
-85 95 -85 57 0 90 29 100 89 l7 41 181 -2 182 -3 6 -44 c7 -55 36 -81 90 -81
58 0 87 18 99 59 5 20 10 43 10 52 0 9 11 20 24 23 20 5 26 14 32 52 10 69 -1
214 -20 249 -22 41 -21 43 19 82 45 43 49 94 10 119 -21 14 -34 15 -78 6 -57
-12 -72 -3 -83 48 -10 46 -20 55 -92 75 -66 18 -72 22 -72 46 0 19 -6 28 -22
33 -41 11 -182 6 -208 -7z m285 -112 c11 -1 27 -3 36 -4 11 -1 22 -22 34 -68
10 -38 20 -74 23 -80 3 -10 -55 -13 -270 -13 -151 0 -277 3 -281 6 -3 3 -2 18
3 32 4 15 13 46 19 68 12 47 23 54 96 65 42 6 270 2 340 -6z m-530 -139 c18
-13 18 -15 2 -40 -10 -14 -24 -26 -32 -26 -22 0 -55 37 -55 60 0 16 7 20 33
20 18 0 42 -6 52 -14z m775 -11 c0 -32 -44 -63 -69 -48 -21 13 -27 53 -9 64 7
5 28 9 46 9 27 0 32 -3 32 -25z m-111 -78 c13 -6 38 -37 55 -67 28 -51 31 -62
30 -143 -1 -48 -5 -92 -11 -98 -6 -6 -158 -8 -399 -7 l-389 3 -3 99 -3 98 42
64 41 64 307 0 c223 0 312 -4 330 -13z m-549 -401 c0 -33 -2 -34 -42 -38 -49
-6 -68 5 -68 37 0 31 7 35 62 35 48 0 48 0 48 -34z m565 -6 c0 -34 -2 -35 -40
-38 -46 -4 -65 14 -57 54 4 23 8 25 51 22 45 -3 46 -3 46 -38z"/>
<path d="M283 619 c-25 -25 -6 -107 30 -137 24 -21 116 -26 156 -10 l34 14
-33 37 c-66 76 -160 124 -187 96z m127 -101 c0 -4 -16 -8 -35 -8 -28 0 -38 5
-44 23 -5 12 -7 25 -4 30 5 9 83 -33 83 -45z"/>
<path d="M893 614 c-47 -17 -143 -101 -143 -126 0 -30 110 -39 161 -12 35 17
59 67 59 119 0 40 -9 42 -77 19z m23 -70 c-3 -9 -6 -20 -6 -25 0 -5 -16 -9
-36 -9 -41 0 -42 17 -3 37 34 18 52 16 45 -3z"/>
<path d="M1 263 l-1 -263 288 1 c189 1 270 4 237 10 -257 42 -440 209 -510
464 -13 46 -14 28 -14 -212z"/>
<path d="M1202 433 c-65 -214 -261 -384 -487 -422 -34 -6 42 -9 233 -10 l282
-1 0 255 c0 140 -1 255 -2 255 -2 0 -13 -35 -26 -77z"/>
</g>
</svg>
