<?xml version="1.0" standalone="no"?>
<!DOCTYPE svg PUBLIC "-//W3C//DTD SVG 20010904//EN"
 "http://www.w3.org/TR/2001/REC-SVG-20010904/DTD/svg10.dtd">
<svg version="1.0" xmlns="http://www.w3.org/2000/svg"
 width="120.000000pt" height="121.000000pt" viewBox="0 0 120.000000 121.000000"
 preserveAspectRatio="xMidYMid meet">

<g transform="translate(0.000000,121.000000) scale(0.100000,-0.100000)"
fill="#000000" stroke="none">
<path d="M1 943 c1 -174 4 -254 10 -228 4 22 10 50 13 63 12 57 79 172 135
233 93 102 217 166 371 192 14 2 -100 5 -252 6 l-278 1 1 -267z"/>
<path d="M695 1199 c170 -28 333 -139 416 -284 35 -60 69 -159 79 -229 4 -30
8 65 9 237 l1 287 -277 -1 c-185 -1 -261 -4 -228 -10z"/>
<path d="M438 969 c-14 -8 -18 -23 -18 -69 l0 -60 -89 0 c-68 0 -93 -4 -105
-16 -13 -13 -16 -46 -16 -202 0 -103 5 -194 10 -202 7 -12 39 -16 147 -20
l138 -5 0 -25 c0 -20 -6 -26 -30 -30 -26 -4 -30 -10 -33 -42 -4 -47 4 -50 163
-46 l120 3 0 40 c0 39 -1 40 -37 43 -35 3 -38 6 -38 33 l0 29 134 0 c109 0
138 3 150 16 24 23 24 385 0 408 -12 12 -37 16 -105 16 l-89 0 0 58 c0 32 -5
63 -12 70 -15 15 -265 16 -290 1z m280 -131 l-3 -123 -115 -3 c-172 -4 -160
-14 -160 128 l0 120 140 0 141 0 -3 -122z m-298 -72 c0 -34 5 -58 14 -65 12
-10 12 -17 -2 -44 -9 -18 -21 -35 -25 -38 -5 -3 -7 -19 -5 -35 2 -23 9 -30 30
-32 44 -5 63 56 22 72 -13 5 -13 10 3 36 15 26 23 30 60 30 41 0 43 -2 43 -29
0 -16 -7 -34 -15 -41 -31 -26 -8 -90 32 -90 23 0 53 30 53 52 0 10 -9 26 -20
35 -11 10 -20 30 -20 45 0 26 3 28 42 28 24 0 49 -7 60 -17 19 -17 25 -53 9
-53 -16 0 -23 -40 -11 -55 17 -20 57 -19 68 2 7 12 2 31 -19 69 -24 45 -26 54
-13 64 9 8 14 32 14 66 l0 54 90 0 c89 0 91 0 101 -27 11 -28 5 -285 -7 -304
-3 -5 -149 -9 -339 -9 -298 0 -335 2 -350 17 -14 14 -16 36 -13 157 1 78 7
147 11 154 6 8 37 12 98 12 l89 0 0 -54z m178 -158 c30 -30 -1 -73 -36 -51
-23 14 -25 29 -7 47 20 19 27 20 43 4z m-141 -14 c5 -14 -11 -33 -28 -34 -10
0 -20 31 -13 41 9 15 34 10 41 -7z m289 5 c10 -17 -23 -46 -37 -32 -7 7 -9 19
-6 27 7 18 33 21 43 5z m188 -154 c-4 -11 -9 -22 -11 -25 -3 -3 -155 -6 -338
-8 -295 -2 -335 -1 -349 13 -38 39 -29 40 344 40 355 0 360 0 354 -20z m-294
-75 l0 -30 -60 0 -60 0 0 30 0 30 60 0 60 0 0 -30z m63 -49 c13 -1 17 -7 15
-23 -3 -22 -7 -23 -131 -26 -112 -2 -128 -1 -134 14 -14 36 32 42 250 35z"/>
<path d="M496 898 c-8 -32 -6 -99 4 -123 6 -13 9 7 9 63 1 84 -2 99 -13 60z"/>
<path d="M584 885 c-7 -19 -21 -51 -29 -71 -17 -42 -19 -54 -6 -54 5 0 12 11
15 25 5 21 12 25 41 25 29 0 37 -5 45 -25 5 -14 14 -25 19 -25 5 0 0 23 -11
52 -23 61 -46 108 -54 108 -3 0 -12 -16 -20 -35z m41 -32 c5 -20 3 -23 -19
-23 -24 0 -24 2 -14 31 11 32 21 29 33 -8z"/>
<path d="M1182 483 c-7 -38 -30 -105 -52 -150 -90 -182 -243 -291 -455 -323
-30 -4 68 -8 238 -9 l287 -1 0 275 c0 151 -1 275 -3 275 -1 0 -8 -30 -15 -67z"/>
<path d="M1 273 l-1 -273 303 1 c218 1 288 4 252 11 -181 33 -257 66 -354 155
-97 87 -150 176 -181 301 l-19 77 0 -272z"/>
</g>
</svg>
