<?xml version="1.0" standalone="no"?>
<!DOCTYPE svg PUBLIC "-//W3C//DTD SVG 20010904//EN"
 "http://www.w3.org/TR/2001/REC-SVG-20010904/DTD/svg10.dtd">
<svg version="1.0" xmlns="http://www.w3.org/2000/svg"
 width="121.000000pt" height="121.000000pt" viewBox="0 0 121.000000 121.000000"
 preserveAspectRatio="xMidYMid meet">

<g transform="translate(0.000000,121.000000) scale(0.100000,-0.100000)"
fill="#000000" stroke="none">
<path d="M1 938 c1 -251 2 -268 14 -213 54 249 223 413 481 468 67 15 62 15
-213 16 l-283 1 1 -272z"/>
<path d="M740 1194 c101 -21 203 -77 272 -148 108 -110 162 -200 187 -311 6
-28 9 40 10 218 l1 257 -267 -1 c-255 -1 -265 -1 -203 -15z"/>
<path d="M551 1051 c-10 -7 -14 -50 -15 -195 -1 -102 -5 -188 -9 -192 -3 -3
-72 -6 -154 -5 -81 0 -163 -2 -180 -5 -30 -6 -33 -9 -33 -44 0 -25 5 -40 16
-44 9 -3 92 -6 185 -6 128 0 169 -3 170 -12 1 -7 2 -20 3 -28 2 -8 3 -92 4
-186 2 -171 2 -171 25 -169 12 1 43 3 70 4 l47 1 0 179 c0 99 3 186 6 195 5
14 31 16 185 16 l179 0 0 50 0 50 -182 2 -183 3 -3 191 c-2 189 -3 192 -25
198 -32 8 -90 7 -106 -3z"/>
<path d="M403 1007 c-61 -31 -133 -90 -133 -107 0 -10 190 -120 207 -120 12 0
8 253 -5 257 -4 2 -35 -12 -69 -30z"/>
<path d="M730 900 c0 -71 3 -130 6 -130 3 0 52 27 110 61 93 54 103 63 93 80
-20 38 -148 119 -189 119 -19 0 -20 -6 -20 -130z"/>
<path d="M855 795 c-100 -58 -133 -85 -107 -85 33 0 232 117 232 136 0 8 -3
14 -7 14 -5 0 -57 -29 -118 -65z"/>
<path d="M210 811 c0 -19 164 -111 197 -111 28 1 -19 36 -109 81 -83 42 -88
44 -88 30z"/>
<path d="M177 733 c-8 -39 2 -45 69 -41 l59 3 -49 33 c-61 39 -72 40 -79 5z"/>
<path d="M973 734 c-24 -14 -43 -29 -43 -35 0 -12 107 -12 114 0 7 11 -10 61
-21 61 -5 0 -27 -12 -50 -26z"/>
<path d="M1 268 l-1 -268 258 1 257 0 -67 18 c-218 59 -384 233 -432 452 -13
61 -14 51 -15 -203z"/>
<path d="M174 498 c3 -17 8 -33 9 -35 6 -5 83 36 97 51 11 14 5 16 -50 16
l-62 0 6 -32z"/>
<path d="M918 517 c17 -20 110 -69 115 -60 3 5 7 22 8 38 l4 30 -69 3 c-58 3
-67 1 -58 -11z"/>
<path d="M830 489 c62 -41 159 -91 172 -87 25 9 -156 118 -196 118 -16 0 -11
-7 24 -31z"/>
<path d="M372 469 c-88 -45 -158 -98 -130 -99 20 0 228 118 228 131 0 15 -16
10 -98 -32z"/>
<path d="M1188 438 c-22 -90 -84 -196 -159 -270 -63 -62 -183 -127 -279 -152
-52 -14 -41 -15 203 -15 l257 -1 0 255 c0 140 -1 255 -2 255 -2 0 -11 -32 -20
-72z"/>
<path d="M405 412 c-81 -43 -135 -80 -135 -92 0 -20 65 -71 133 -105 l72 -36
6 64 c3 36 3 97 0 135 l-6 71 -70 -37z"/>
<path d="M730 309 l0 -130 23 7 c36 11 79 35 130 71 81 60 80 62 -37 127 -57
31 -107 56 -110 56 -3 0 -6 -59 -6 -131z"/>
</g>
</svg>
